<svg width="440" height="315" viewBox="0 0 440 315" fill="none" xmlns="http://www.w3.org/2000/svg">
<path fill-rule="evenodd" clip-rule="evenodd" d="M194.693 50.4641C208.209 36.3726 227.046 27.6013 247.895 27.6013C275.647 27.6013 299.804 42.9869 312.601 65.9935C324.105 60.817 336.614 58.2288 349.268 58.2288C399.307 58.2288 439.856 99.0654 439.856 149.536C439.856 200.007 399.307 240.843 349.268 240.843C343.229 240.843 337.19 240.268 331.438 239.118C320.078 259.392 298.51 273.052 273.634 273.052C263.569 273.052 253.647 270.752 244.732 266.438C233.229 293.471 206.484 312.451 175.281 312.451C142.784 312.451 115.033 291.889 104.392 262.987C99.6471 263.993 94.7582 264.425 90.0131 264.425C51.3333 264.425 19.9869 232.791 19.9869 193.68C19.9869 167.51 34.0784 144.647 55.0719 132.281C50.6144 122.072 48.3137 111 48.3137 99.9281C48.3137 54.9216 84.8366 18.5425 129.843 18.5425C156.301 18.3987 179.882 30.9085 194.693 50.4641Z" fill="#DBF3FF"/>
<path d="M47.5948 168.085V161.902C47.5948 161.183 47.1634 160.608 46.4444 160.464L41.268 159.457C40.9804 158.451 40.549 157.444 40.1176 156.582L42.9935 152.268C43.4248 151.693 43.281 150.974 42.8497 150.399L38.3922 146.085C37.9608 145.654 37.098 145.51 36.5229 145.941L32.2092 148.817C31.3464 148.386 30.3399 147.954 29.3333 147.667L28.3268 142.49C28.183 141.771 27.6078 141.34 26.8889 141.34H20.7059C19.9869 141.34 19.4118 141.771 19.268 142.49L18.2614 147.667C17.2549 147.954 16.2484 148.386 15.3856 148.817L11.0719 145.941C10.4967 145.51 9.77778 145.654 9.20261 146.085L4.7451 150.399C4.31373 150.83 4.16993 151.693 4.60131 152.268L7.47712 156.582C7.04575 157.444 6.61438 158.451 6.3268 159.457L1.15033 160.464C0.431372 160.608 0 161.183 0 161.902V168.085C0 168.804 0.431372 169.379 1.15033 169.523L6.3268 170.529C6.61438 171.536 7.04575 172.542 7.47712 173.405L4.60131 177.719C4.16993 178.294 4.31373 179.013 4.7451 179.588L9.20261 183.902C9.63399 184.333 10.4967 184.477 11.0719 184.046L15.3856 181.17C16.2484 181.601 17.2549 182.033 18.2614 182.32L19.268 187.497C19.4118 188.216 19.9869 188.647 20.7059 188.647H26.8889C27.6078 188.647 28.183 188.216 28.3268 187.497L29.3333 182.32C30.3399 182.033 31.3464 181.601 32.2092 181.17L36.5229 184.046C37.098 184.477 37.817 184.333 38.3922 183.902L42.8497 179.588C43.281 179.157 43.4248 178.294 42.9935 177.719L40.1176 173.405C40.549 172.542 40.9804 171.536 41.268 170.529L46.4444 169.523C47.1634 169.235 47.5948 168.66 47.5948 168.085ZM24.4444 173.693C18.9804 174.124 14.5229 169.667 14.9542 164.203C15.2418 159.889 18.8366 156.438 23.0065 156.15C28.4706 155.719 32.9281 160.176 32.4967 165.64C32.2092 169.954 28.7582 173.405 24.4444 173.693Z" fill="#FFB800"/>
<path d="M117.765 114.451V105.392C117.765 104.386 117.046 103.523 116.039 103.235L108.562 101.654C108.131 100.216 107.555 98.7777 106.837 97.3398L111.006 90.8692C111.582 90.0065 111.438 88.8562 110.719 88.1372L104.248 81.9542C103.529 81.2352 102.379 81.0915 101.516 81.6666L95.0457 85.8366C93.7516 85.1176 92.3137 84.5424 90.732 84.1111L89.1503 76.6339C89.0065 75.6274 88.1437 74.9084 86.9934 74.9084H77.9346C76.928 74.9084 76.0653 75.6274 75.7777 76.6339L74.196 84.1111C72.7581 84.5424 71.3202 85.1176 69.8823 85.8366L63.4117 81.6666C62.549 81.0915 61.3986 81.2352 60.6797 81.9542L54.2091 88.4248C53.4901 89.1437 53.3463 90.2941 53.9215 91.1568L58.0914 97.6274C57.3725 98.9215 56.7973 100.359 56.3659 101.941L48.8888 103.523C47.8823 103.667 47.1633 104.529 47.1633 105.68V114.739C47.1633 115.745 47.8823 116.608 48.8888 116.895L56.3659 118.477C56.7973 119.915 57.3725 121.353 58.0914 122.791L53.9215 129.261C53.3463 130.124 53.4901 131.274 54.2091 131.993L60.6797 138.464C61.3986 139.183 62.549 139.327 63.4117 138.752L69.8823 134.582C71.1764 135.301 72.6143 135.876 74.196 136.307L75.7777 143.784C75.9215 144.791 76.7842 145.51 77.9346 145.51H86.9934C87.9999 145.51 88.8627 144.791 89.1503 143.784L90.732 136.307C92.1699 135.876 93.6078 135.301 95.0457 134.582L101.516 138.752C102.379 139.327 103.529 139.183 104.248 138.464L110.719 131.993C111.438 131.274 111.582 130.124 111.006 129.261L106.837 122.791C107.555 121.497 108.131 120.059 108.562 118.477L116.039 116.895C117.046 116.32 117.765 115.457 117.765 114.451ZM83.5424 121.209C76.4967 121.784 70.745 116.033 71.3202 108.987C71.7516 103.523 76.2091 99.0653 81.6731 98.6339C88.7189 98.0588 94.4705 103.81 93.8954 110.856C93.464 116.32 89.0065 120.778 83.5424 121.209Z" fill="#1DA5F2"/>
<path d="M418.719 188.503V179.588C418.719 178.582 418 177.719 416.993 177.575L409.516 175.993C409.085 174.555 408.51 173.118 407.791 171.823L411.961 165.497C412.536 164.634 412.392 163.627 411.673 162.908L405.346 156.582C404.627 155.863 403.477 155.719 402.758 156.294L396.431 160.464C395.137 159.745 393.699 159.17 392.261 158.739L390.68 151.261C390.536 150.255 389.673 149.536 388.667 149.536H379.752C378.745 149.536 377.882 150.255 377.738 151.261L376.157 158.739C374.719 159.17 373.281 159.745 371.987 160.464L365.66 156.294C364.797 155.719 363.791 155.863 363.072 156.582L356.745 162.908C356.026 163.627 355.882 164.778 356.457 165.497L360.627 171.823C359.908 173.118 359.333 174.555 358.902 175.993L351.425 177.575C350.418 177.719 349.699 178.582 349.699 179.588V188.503C349.699 189.51 350.418 190.372 351.425 190.516L358.902 192.098C359.333 193.536 359.908 194.974 360.627 196.268L356.457 202.595C355.882 203.457 356.026 204.464 356.745 205.183L363.072 211.51C363.791 212.229 364.941 212.372 365.66 211.797L371.987 207.627C373.281 208.346 374.719 208.922 376.157 209.353L377.738 216.83C377.882 217.837 378.745 218.555 379.752 218.555H388.667C389.673 218.555 390.536 217.837 390.68 216.83L392.261 209.353C393.699 208.922 395.137 208.346 396.431 207.627L402.758 211.797C403.621 212.372 404.627 212.229 405.346 211.51L411.673 205.183C412.392 204.464 412.536 203.314 411.961 202.595L407.791 196.268C408.51 194.974 409.085 193.536 409.516 192.098L416.993 190.516C418 190.372 418.719 189.51 418.719 188.503ZM385.216 195.118C378.314 195.693 372.706 189.941 373.281 183.183C373.712 177.719 378.026 173.405 383.49 172.974C390.392 172.399 396 178.15 395.425 184.908C394.993 190.229 390.536 194.686 385.216 195.118Z" fill="#FFB800"/>
<path d="M439.856 259.967V252.203C439.856 251.34 439.281 250.621 438.418 250.477L431.948 249.183C431.516 247.889 431.085 246.739 430.366 245.588L433.961 240.124C434.392 239.405 434.392 238.399 433.673 237.824L428.065 232.216C427.49 231.641 426.484 231.497 425.765 231.928L420.301 235.523C419.15 234.948 417.856 234.373 416.706 233.941L415.412 227.471C415.268 226.608 414.549 226.033 413.686 226.033H405.922C405.059 226.033 404.34 226.608 404.196 227.471L402.902 233.941C401.608 234.373 400.458 234.804 399.307 235.523L393.843 231.928C393.124 231.497 392.118 231.497 391.543 232.216L385.935 237.824C385.36 238.399 385.216 239.405 385.647 240.124L389.242 245.588C388.667 246.739 388.092 248.033 387.66 249.183L381.19 250.477C380.327 250.621 379.752 251.34 379.752 252.203V259.967C379.752 260.83 380.327 261.549 381.19 261.693L387.66 262.987C388.092 264.281 388.523 265.431 389.242 266.582L385.647 272.046C385.216 272.765 385.216 273.771 385.935 274.346L391.543 279.954C392.118 280.529 393.124 280.673 393.843 280.242L399.307 276.647C400.458 277.222 401.752 277.797 402.902 278.229L404.196 284.699C404.34 285.562 405.059 286.137 405.922 286.137H413.686C414.549 286.137 415.268 285.562 415.412 284.699L416.706 278.229C418 277.797 419.15 277.366 420.301 276.647L425.765 280.242C426.484 280.673 427.49 280.673 428.065 279.954L433.673 274.346C434.248 273.771 434.392 272.765 433.961 272.046L430.366 266.582C430.941 265.431 431.516 264.137 431.948 262.987L438.418 261.693C439.281 261.549 439.856 260.83 439.856 259.967ZM411.098 271.758C401.32 272.477 393.124 264.425 393.987 254.647C394.562 246.882 400.889 240.699 408.51 240.124C418.288 239.405 426.484 247.458 425.621 257.235C425.046 265 418.719 271.183 411.098 271.758ZM410.523 265.288C404.771 265.719 400.026 260.974 400.601 255.366C400.889 250.909 404.628 247.17 409.085 246.882C414.837 246.451 419.582 251.196 419.007 256.804C418.575 261.261 414.98 264.856 410.523 265.288Z" fill="#1DA5F2"/>
<mask id="mask0" mask-type="alpha" maskUnits="userSpaceOnUse" x="118" y="87" width="222" height="155">
<path fill-rule="evenodd" clip-rule="evenodd" d="M118.915 87.1306H339.922V241.85H118.915V87.1306Z" fill="white"/>
</mask>
<g mask="url(#mask0)">
<path fill-rule="evenodd" clip-rule="evenodd" d="M210.941 103.954C218.131 96.477 228.052 91.8757 238.98 91.8757C253.503 91.8757 266.301 100.072 273.059 112.15C279.098 109.418 285.712 107.98 292.327 107.98C318.641 107.98 339.922 129.549 339.922 156.006C339.922 182.464 318.641 204.176 292.327 204.176C289.163 204.176 286 203.889 282.98 203.17C276.941 213.81 265.582 221 252.641 221C247.32 221 242.144 219.85 237.399 217.549C231.359 231.784 217.268 241.706 200.876 241.706C183.765 241.706 169.242 230.921 163.634 215.68C161.19 216.255 158.601 216.399 156.013 216.399C135.595 216.399 119.059 199.719 119.059 179.157C119.059 165.353 126.536 153.274 137.464 146.804C135.163 141.484 133.869 135.588 133.869 129.693C133.869 105.967 153.137 86.843 176.863 86.843C190.667 87.1306 203.033 93.745 210.941 103.954Z" fill="#00A1E0"/>
<path fill-rule="evenodd" clip-rule="evenodd" d="M150.98 167.366C150.837 167.797 150.98 167.797 151.124 167.797C151.556 168.085 151.987 168.372 152.418 168.516C154.719 169.667 156.732 170.098 159.033 170.098C163.634 170.098 166.366 167.654 166.366 163.771V163.627C166.366 160.033 163.203 158.738 160.183 157.732L159.752 157.588C157.451 156.869 155.582 156.294 155.582 154.712V154.569C155.582 153.274 156.732 152.412 158.458 152.412C160.471 152.412 162.771 153.131 164.209 153.85C164.209 153.85 164.641 154.137 164.784 153.706C164.928 153.418 165.647 151.405 165.647 151.261C165.791 150.974 165.647 150.83 165.36 150.686C163.634 149.68 161.333 148.961 158.889 148.961H158.458C154.288 148.961 151.412 151.405 151.412 155V155.144C151.412 158.882 154.575 160.176 157.595 161.039L158.026 161.183C160.183 161.902 162.052 162.477 162.052 163.915V164.059C162.052 165.497 160.758 166.503 158.889 166.503C158.17 166.503 155.726 166.503 152.994 164.778C152.706 164.634 152.562 164.49 152.275 164.346C152.131 164.203 151.843 164.059 151.699 164.49L150.98 167.366ZM217.268 167.366C217.124 167.797 217.268 167.797 217.412 167.797C217.843 168.085 218.275 168.372 218.706 168.516C221.007 169.667 223.02 170.098 225.32 170.098C229.922 170.098 232.654 167.654 232.654 163.771V163.627C232.654 160.033 229.49 158.738 226.471 157.732L226.039 157.588C223.739 156.869 221.869 156.294 221.869 154.712V154.569C221.869 153.274 223.02 152.412 224.745 152.412C226.758 152.412 229.059 153.131 230.497 153.85C230.497 153.85 230.928 154.137 231.072 153.706C231.216 153.418 231.935 151.405 231.935 151.261C232.078 150.974 231.935 150.83 231.647 150.686C229.922 149.68 227.621 148.961 225.177 148.961H224.745C220.575 148.961 217.699 151.405 217.699 155V155.144C217.699 158.882 220.863 160.176 223.882 161.039L224.314 161.183C226.471 161.902 228.34 162.477 228.34 163.915V164.059C228.34 165.497 227.046 166.503 225.177 166.503C224.458 166.503 222.013 166.503 219.281 164.778C218.994 164.634 218.706 164.49 218.562 164.346C218.418 164.346 218.131 164.203 217.987 164.49L217.268 167.366ZM262.562 159.745C262.562 161.902 262.131 163.627 261.412 164.921C260.549 166.072 259.399 166.791 257.673 166.791C255.948 166.791 254.797 166.216 253.935 164.921C253.072 163.771 252.784 161.902 252.784 159.745C252.784 157.588 253.216 155.863 253.935 154.569C254.654 153.418 255.948 152.843 257.673 152.843C259.399 152.843 260.549 153.418 261.412 154.569C262.275 155.863 262.562 157.588 262.562 159.745ZM266.445 155.719C266.013 154.425 265.438 153.418 264.719 152.412C264 151.549 262.994 150.686 261.843 150.255C260.693 149.68 259.255 149.392 257.817 149.392C256.379 149.392 254.941 149.68 253.791 150.255C252.641 150.83 251.634 151.549 250.915 152.412C250.196 153.274 249.621 154.425 249.19 155.719C248.758 157.013 248.614 158.307 248.614 159.745C248.614 161.183 248.758 162.621 249.19 163.771C249.621 165.065 250.196 166.072 250.915 167.078C251.634 167.941 252.641 168.804 253.791 169.235C254.941 169.81 256.379 170.098 257.817 170.098C259.399 170.098 260.693 169.81 261.843 169.235C262.994 168.66 264 167.941 264.719 167.078C265.438 166.216 266.013 165.065 266.445 163.771C266.876 162.477 267.02 161.183 267.02 159.745C267.02 158.307 266.732 156.869 266.445 155.719ZM297.503 166.072C297.36 165.64 297.072 165.784 297.072 165.784C296.497 165.928 295.922 166.216 295.346 166.216C294.771 166.359 294.052 166.359 293.333 166.359C291.464 166.359 290.026 165.784 289.02 164.778C288.013 163.771 287.438 161.902 287.438 159.601C287.438 157.444 288.013 155.863 288.876 154.569C289.739 153.418 291.177 152.699 293.046 152.699C294.628 152.699 295.778 152.843 297.072 153.274C297.072 153.274 297.36 153.418 297.503 152.987C297.791 152.124 298.079 151.405 298.366 150.399C298.51 150.111 298.222 149.967 298.079 149.967C297.647 149.823 296.497 149.392 295.49 149.392C294.628 149.248 293.765 149.248 292.614 149.248C291.033 149.248 289.595 149.536 288.445 150.111C287.294 150.686 286.144 151.405 285.425 152.268C284.562 153.131 283.987 154.281 283.556 155.575C283.124 156.869 282.98 158.163 282.98 159.601C282.98 162.765 283.843 165.209 285.569 167.078C287.294 168.948 289.739 169.954 293.046 169.954C294.915 169.954 296.928 169.523 298.366 168.948C298.366 168.948 298.654 168.804 298.51 168.516L297.503 166.072ZM304.118 157.588C304.262 156.438 304.693 155.287 305.124 154.569C305.843 153.418 307.137 152.699 308.719 152.699C310.445 152.699 311.451 153.418 312.314 154.569C312.889 155.431 313.033 156.438 313.177 157.588H304.118ZM316.915 155C316.628 153.85 315.765 152.555 315.333 151.98C314.471 151.118 313.752 150.399 312.889 150.111C311.739 149.68 310.445 149.392 309.15 149.392C307.569 149.392 306.131 149.68 304.98 150.255C303.83 150.83 302.824 151.549 301.961 152.555C301.242 153.562 300.667 154.569 300.235 155.863C299.804 157.157 299.66 158.451 299.66 159.889C299.66 161.327 299.804 162.765 300.235 163.915C300.667 165.209 301.242 166.216 302.105 167.222C302.967 168.085 303.974 168.804 305.268 169.379C306.562 169.81 308.144 170.098 309.869 170.098C313.608 170.098 315.477 169.235 316.34 168.804C316.484 168.66 316.628 168.516 316.484 168.229L315.621 165.928C315.477 165.64 315.19 165.64 315.19 165.64C314.327 165.928 313.033 166.647 309.869 166.647C307.856 166.647 306.418 166.072 305.556 165.209C304.549 164.203 304.118 162.908 304.118 160.895H316.915C316.915 160.895 317.203 160.895 317.346 160.608C317.203 160.32 317.634 157.876 316.915 155ZM201.451 157.588C201.595 156.438 202.026 155.287 202.458 154.569C203.177 153.418 204.471 152.699 206.052 152.699C207.778 152.699 208.784 153.418 209.647 154.569C210.222 155.431 210.366 156.438 210.51 157.588H201.451ZM214.248 155C213.961 153.85 213.098 152.555 212.667 151.98C211.804 151.118 211.085 150.399 210.222 150.111C209.072 149.68 207.778 149.392 206.484 149.392C204.902 149.392 203.464 149.68 202.314 150.255C201.163 150.83 200.157 151.549 199.294 152.555C198.575 153.562 198 154.569 197.569 155.863C197.137 157.157 196.994 158.451 196.994 159.889C196.994 161.327 197.137 162.765 197.569 163.915C198 165.209 198.575 166.216 199.438 167.222C200.301 168.085 201.307 168.804 202.601 169.379C203.895 169.81 205.477 170.098 207.203 170.098C210.941 170.098 212.811 169.235 213.673 168.804C213.817 168.66 213.961 168.516 213.817 168.229L212.954 165.928C212.811 165.64 212.523 165.64 212.523 165.64C211.66 165.928 210.366 166.647 207.203 166.647C205.19 166.647 203.752 166.072 202.889 165.209C201.882 164.203 201.451 162.908 201.451 160.895H214.248C214.248 160.895 214.536 160.895 214.68 160.608C214.68 160.32 215.111 157.876 214.248 155ZM173.843 166.072C173.412 165.64 173.268 165.64 173.124 165.353C172.837 164.921 172.693 164.346 172.693 163.627C172.693 162.477 173.124 161.758 173.843 161.183C173.843 161.183 174.994 160.176 177.582 160.32C178.732 160.32 179.882 160.464 181.033 160.608V166.503C181.033 166.503 179.451 166.791 177.582 166.935C174.994 166.935 173.843 166.072 173.843 166.072ZM178.876 157.013C178.301 157.013 177.726 157.013 176.863 157.013C175.712 157.013 174.706 157.157 173.699 157.444C172.693 157.732 171.83 158.163 170.967 158.738C170.248 159.314 169.529 160.033 169.098 160.895C168.667 161.758 168.379 162.765 168.379 163.915C168.379 165.065 168.523 166.072 168.954 166.791C169.386 167.654 169.961 168.229 170.68 168.804C171.399 169.379 172.262 169.667 173.268 169.954C174.275 170.242 175.425 170.242 176.719 170.242C178.013 170.242 179.307 170.098 180.601 169.954C181.752 169.81 182.758 169.523 183.765 169.379C184.196 169.235 184.628 169.091 184.628 169.091C184.915 168.948 184.915 168.66 184.915 168.66V157.013C184.915 154.425 184.196 152.555 182.902 151.405C181.608 150.255 179.595 149.68 177.007 149.68C176 149.68 174.562 149.823 173.556 149.967C173.556 149.967 170.824 150.542 169.673 151.405C169.673 151.405 169.386 151.549 169.529 151.98L170.392 154.425C170.536 154.712 170.824 154.569 170.824 154.569C170.824 154.569 170.967 154.569 170.967 154.425C173.412 153.131 176.575 153.131 176.575 153.131C178.013 153.131 179.02 153.418 179.739 153.993C180.458 154.569 180.745 155.287 180.745 157.013V157.588C179.882 157.157 178.876 157.013 178.876 157.013ZM282.262 150.399C282.405 150.255 282.262 149.967 282.118 149.967C281.83 149.823 280.824 149.68 279.961 149.536C278.379 149.392 277.516 149.68 276.654 150.111C275.791 150.399 274.928 151.118 274.497 151.693V150.111C274.497 149.967 274.353 149.68 274.065 149.68H270.758C270.614 149.68 270.327 149.823 270.327 150.111V169.235C270.327 169.379 270.471 169.667 270.758 169.667H274.065C274.209 169.667 274.497 169.523 274.497 169.235V159.745C274.497 158.451 274.641 157.157 274.928 156.438C275.216 155.575 275.647 155 276.079 154.569C276.51 154.137 277.085 153.85 277.66 153.562C278.235 153.418 278.811 153.274 279.386 153.274C280.105 153.274 280.824 153.418 280.824 153.418C281.111 153.418 281.255 153.274 281.255 153.131C281.543 152.555 282.118 150.83 282.262 150.399Z" fill="#FFFFFE"/>
<path fill-rule="evenodd" clip-rule="evenodd" d="M250.627 141.484C250.196 141.34 249.765 141.196 249.333 141.196C248.758 141.052 248.183 141.052 247.608 141.052C245.307 141.052 243.438 141.771 242.144 143.065C240.85 144.359 239.987 146.373 239.556 148.817L239.412 149.68H236.536C236.536 149.68 236.248 149.68 236.105 150.111L235.673 152.843C235.673 153.131 235.817 153.274 236.105 153.274H238.98L236.105 169.379C235.817 170.673 235.673 171.68 235.386 172.542C235.098 173.405 234.81 173.98 234.523 174.412C234.235 174.843 233.948 175.131 233.373 175.274C232.941 175.418 232.366 175.562 231.935 175.562C231.647 175.562 231.216 175.562 230.928 175.418C230.641 175.418 230.497 175.274 230.209 175.131C230.209 175.131 229.922 174.987 229.778 175.274C229.634 175.562 228.915 177.575 228.771 177.863C228.627 178.15 228.771 178.294 228.915 178.438C229.346 178.582 229.634 178.725 230.065 178.725C230.784 178.869 231.359 178.869 231.935 178.869C233.085 178.869 234.235 178.725 235.098 178.438C235.961 178.15 236.824 177.575 237.399 176.856C238.118 175.993 238.549 175.131 239.124 173.98C239.556 172.83 239.987 171.392 240.275 169.667L243.15 153.274H247.32C247.32 153.274 247.608 153.274 247.752 152.843L248.183 150.111C248.183 149.823 248.039 149.68 247.752 149.68H243.726C243.726 149.536 243.869 148.098 244.444 146.804C244.588 146.229 245.02 145.797 245.307 145.366C245.595 145.078 246.026 144.791 246.314 144.647C246.745 144.503 247.176 144.503 247.752 144.503C248.183 144.503 248.471 144.503 248.758 144.647C249.19 144.791 249.333 144.791 249.477 144.791C249.909 144.935 249.908 144.791 250.052 144.647L251.059 141.915C250.915 141.771 250.771 141.627 250.627 141.484ZM193.399 169.235C193.399 169.379 193.255 169.667 192.967 169.667H189.66C189.516 169.667 189.229 169.523 189.229 169.235V141.915C189.229 141.771 189.373 141.484 189.66 141.484H193.111C193.255 141.484 193.542 141.627 193.542 141.915V169.235" fill="#FFFFFE"/>
</g>
<path d="M120.209 269.026C110.719 263.994 99.3595 265.863 92.0261 272.909C90.3006 274.634 88.7189 276.647 87.4248 278.948C83.6863 285.85 83.8301 293.902 86.8497 300.516C89.0065 305.118 92.6013 309.144 97.3464 311.588C97.7778 311.876 98.3529 312.02 98.7843 312.307C100.941 313.314 103.242 313.889 105.542 314.177C115.176 315.471 125.098 310.726 129.987 301.523C136.458 289.876 132 275.209 120.209 269.026ZM124.81 298.791C121.216 305.693 113.739 309.144 106.549 308.281C104.824 307.994 103.098 307.562 101.373 306.843C100.941 306.699 100.654 306.556 100.222 306.268C96.6274 304.399 93.8954 301.379 92.3137 297.928C90.0131 292.896 90.0131 287 92.7451 281.824C93.6078 280.098 94.7582 278.66 96.1961 277.366C101.66 272.046 110.144 270.608 117.333 274.347C126.248 278.948 129.556 290.02 124.81 298.791Z" stroke="#DBF3FF" stroke-miterlimit="10"/>
<path d="M92.4575 297.928L86.9935 300.517C83.9738 293.902 83.8301 285.994 87.5686 278.948C88.8627 276.647 90.3006 274.634 92.1699 272.909L96.3399 277.222C95.0457 278.517 93.8954 279.954 92.8889 281.68C90.1569 287 90.1569 293.039 92.4575 297.928Z" fill="#DBF3FF"/>
<path d="M101.516 306.843L99.0718 312.307C98.6405 312.02 98.0653 311.876 97.6339 311.588C92.745 309 89.1503 305.118 87.1372 300.516L92.6013 297.928C94.183 301.379 96.915 304.399 100.51 306.268C100.797 306.412 101.085 306.699 101.516 306.843Z" fill="#DBF3FF"/>
<path d="M105.83 314.32C103.529 314.033 101.229 313.458 99.0719 312.451L101.516 306.987C103.242 307.706 104.967 308.281 106.693 308.425L105.83 314.32Z" fill="#DBF3FF"/>
<path d="M64.2745 298.072C69.3072 288.582 67.4379 277.222 60.3921 269.889C58.6666 268.163 56.6536 266.582 54.3529 265.288C47.451 261.549 39.3987 261.693 32.7843 264.712C28.183 266.869 24.1568 270.464 21.7124 275.209C21.4248 275.641 21.281 276.216 20.9934 276.647C19.9869 278.804 19.4117 281.105 19.1242 283.405C17.83 293.039 22.5751 302.961 31.7778 307.85C43.281 314.32 57.9477 309.863 64.2745 298.072ZM34.366 302.673C27.464 299.078 24.013 291.601 24.8758 284.412C25.1634 282.686 25.5947 280.961 26.3137 279.235C26.4575 278.804 26.6013 278.516 26.8889 278.085C28.7581 274.49 31.7778 271.758 35.2287 270.176C40.2614 267.876 46.1568 267.876 51.3333 270.608C53.0588 271.471 54.4967 272.621 55.7908 274.059C61.1111 279.523 62.549 288.007 58.8104 295.196C54.2091 304.111 43.281 307.418 34.366 302.673Z" stroke="#DBF3FF" stroke-miterlimit="10"/>
<path d="M35.2287 270.32L32.6405 264.856C39.2549 261.837 47.1634 261.693 54.2091 265.431C56.5098 266.726 58.5229 268.163 60.2483 270.033L55.9346 274.203C54.6405 272.909 53.2026 271.758 51.4771 270.752C46.1568 268.02 40.2614 268.02 35.2287 270.32Z" fill="#DBF3FF"/>
<path d="M26.3137 279.235L20.8496 276.791C21.1372 276.359 21.281 275.784 21.5686 275.353C24.1568 270.464 28.0391 266.869 32.6405 264.856L35.2287 270.32C31.7777 271.902 28.7581 274.634 26.8888 278.229C26.745 278.516 26.6012 278.948 26.3137 279.235Z" fill="#DBF3FF"/>
<path d="M18.9803 283.693C19.2679 281.392 19.8431 279.091 20.8496 276.935L26.3137 279.379C25.5947 281.105 25.0196 282.83 24.8758 284.555L18.9803 283.693Z" fill="#DBF3FF"/>
<path d="M313.177 29.0392L322.667 19.549L327.268 24.1503L337.333 14.085L345.386 21.9935L355.595 11.7843L362.641 18.8301L380.471 1L393.843 14.3725L401.895 6.32026L410.667 14.9477V45.5752H313.177V29.0392Z" stroke="#DBF3FF" stroke-miterlimit="10"/>
<path d="M313.177 35.2223L320.797 27.7452L325.543 32.4903L331.15 27.0262L341.647 37.3792L354.588 24.2942L359.333 29.0393L372.706 15.5229L385.072 27.889L410.523 2.29419V45.5752H313.177V35.2223Z" fill="#DBF3FF"/>
</svg>
